<?xml version="1.0" encoding="UTF-8"?>
<svg xmlns="http://www.w3.org/2000/svg" viewBox="0 0 1254 1254" role="img" aria-label="DiskDeck reclaimed-space wedge">
  <path d="M0 0 C73.93 3.22 154.4 45.09 208 94 C209.01 94.9 210.03 95.79 211.07 96.72 C213.75 99.1 216.38 101.55 219 104 C219 104.66 219 105.32 219 106 C219.66 106 220.32 106 221 106 C223.4 108.6 225.72 111.29 228 114 C228.77 114.9 228.77 114.9 232.69 119.44 C264.79 158.29 284.72 205.8 284.12 256.5 C284.12 258 284.11 259.5 284.1 261.05 C284.07 264.7 284.04 268.35 284 272 C275.95 272.1 268.06 271.71 260.04 271.05 C257.48 270.85 254.92 270.64 252.28 270.43 C249.48 270.2 246.69 269.96 243.9 269.73 C240.98 269.5 238.07 269.26 235.15 269.02 C227.45 268.4 219.75 267.77 212.06 267.13 C204.41 266.51 196.76 265.88 189.11 265.26 C175.8 264.18 162.5 263.09 149.19 262 C138.33 261.11 127.48 260.22 116.62 259.34 C95.76 257.64 74.9 255.93 54.04 254.19 C50.94 253.93 47.84 253.68 44.75 253.42 C40.13 253.04 35.52 252.65 30.91 252.27 C29.53 252.16 28.16 252.04 26.74 251.93 C20.15 251.37 13.57 250.77 7 250 C6.77 247.79 6.55 245.59 6.31 243.31 C3.72 224.38 -6.3 209.35 -21.12 197.51 C-31.85 189.5 -43.26 183.51 -55.94 179.19 C-57.94 178.47 -59.94 177.74 -62 177 C-64.02 170.93 -59.51 163.46 -57.38 157.56 C-57.08 156.73 -57.08 156.73 -55.57 152.5 C-53.72 147.33 -51.86 142.16 -50 137 C-49.48 135.54 -48.95 134.08 -48.41 132.58 C-45.84 125.44 -43.26 118.3 -40.68 111.17 C-36.11 98.56 -31.59 85.94 -27.06 73.31 C-26.26 71.07 -25.45 68.82 -24.62 66.51 C-21.33 57.32 -18.04 48.13 -14.8 38.92 C-11.98 30.92 -9.1 22.96 -6.19 15 C-5.7 13.65 -5.21 12.31 -4.71 10.92 C-1.12 1.12 -1.12 1.12 0 0 Z " fill="#FE9E0A" transform="translate(729,202)"/>
</svg>
