<?xml version="1.0" encoding="UTF-8"?>
<!-- Faithfully vectorized from the approved DiskDeck brand mark with VTracer 0.6.5. -->
<svg version="1.1" xmlns="http://www.w3.org/2000/svg" viewBox="0 0 1254 1254" role="img" aria-labelledby="title desc">
<title id="title">DiskDeck logo</title>
<desc id="desc">A deck of three disk platters with an amber reclaimed-space wedge and cyan spindle.</desc>
<path d="M0 0 C1.22 6.08 0.04 8.51 -2.14 14.27 C-2.85 16.19 -3.56 18.1 -4.3 20.07 C-5.09 22.15 -5.87 24.23 -6.69 26.38 C-8.35 30.84 -10.02 35.3 -11.68 39.76 C-12.56 42.1 -13.43 44.43 -14.33 46.83 C-18.71 58.59 -22.98 70.39 -27.25 82.19 C-35.74 105.56 -44.3 128.9 -52.93 152.22 C-54.26 155.8 -55.58 159.37 -56.9 162.95 C-58.15 166.32 -59.4 169.7 -60.65 173.07 C-64.89 184.55 -64.89 184.55 -66 189 C-63.69 189 -61.38 189 -59 189 C-42.39 192.37 -27.86 198.14 -14 208 C-12.62 208.93 -11.24 209.86 -9.81 210.81 C1.84 220.55 8.36 232.46 12 247 C12.33 254.17 11.94 260.91 11 268 C12.17 268.09 12.17 268.09 18.08 268.56 C40.56 270.34 63.03 272.12 85.5 273.9 C97.05 274.81 108.59 275.72 120.13 276.64 C151.09 279.08 182.04 281.54 213 284 C215.16 284.17 217.31 284.34 219.54 284.52 C232.01 285.51 244.48 286.51 256.95 287.5 C260.76 287.81 264.57 288.11 268.38 288.42 C273.6 288.83 278.81 289.25 284.03 289.67 C285.56 289.79 287.08 289.91 288.66 290.03 C294.81 290.53 300.89 291.13 307 292 C310.02 298.04 303.82 310.83 302 317 C291.29 348.38 273.37 376.68 251 401 C249.91 402.28 248.81 403.56 247.69 404.88 C226.12 429 199.82 448.67 172 465 C170.42 465.94 168.84 466.89 167.22 467.86 C75.66 521.6 -38.25 540.99 -143 525 C-144.41 524.79 -145.83 524.57 -147.28 524.35 C-253.2 507.72 -360.85 456.3 -426 369 C-456.57 326.01 -471.3 275.74 -463.75 223.25 C-454.37 169.74 -423.08 121.84 -381 88 C-379.14 86.41 -377.29 84.82 -375.38 83.19 C-275.26 0.08 -124.9 -19.63 0 0 Z M-123 234.38 C-129.27 241.95 -132 248.07 -132 258 C-129.94 267.52 -124.85 273.69 -117.38 279.75 C-98.81 290.98 -79.72 291.92 -59 287 C-47.61 283.2 -37.97 276.48 -31.62 266.12 C-28.27 257.6 -28.79 251.53 -32 243 C-40.16 230.77 -50.22 225.38 -64.12 221.12 C-85.32 217.66 -106.07 220.09 -123 234.38 Z " fill="#102A56" transform="translate(699,201)"/>
<path d="M0 0 C0.66 0 1.32 0 2 0 C21.61 63.09 11.77 120.11 -18 178 C-29.33 198.26 -43.31 216.92 -59 234 C-60.07 235.24 -61.14 236.48 -62.24 237.75 C-66.16 242.18 -70.25 246.38 -74.44 250.56 C-75.86 251.99 -77.28 253.41 -78.75 254.88 C-101.77 277.19 -128.14 295.71 -155.66 312.02 C-158.44 313.67 -161.19 315.36 -163.94 317.06 C-170.8 321.05 -177.87 324.52 -185 328 C-186.52 328.76 -188.04 329.53 -189.61 330.31 C-266.07 367.94 -355.5 383.07 -440 371 C-442.32 370.67 -444.64 370.34 -447.04 370 C-548.3 354.02 -650.17 302.91 -712.5 219.75 C-717.82 212.42 -722.54 204.88 -727 197 C-727.75 195.69 -728.5 194.37 -729.28 193.02 C-744.42 165.58 -752.09 135.73 -752.19 104.44 C-752.2 102.33 -752.22 100.23 -752.23 98.06 C-752 93 -752 93 -750 91 C-749.3 91.93 -749.3 91.93 -745.75 96.62 C-728.92 118.51 -709.89 140.12 -688 157 C-686.87 157.93 -685.74 158.85 -684.57 159.8 C-612.22 218.92 -518.71 248.81 -426 251 C-424.48 251.04 -422.96 251.08 -421.4 251.12 C-296.74 252.82 -174.98 203.62 -83 120 C-82.27 119.36 -82.27 119.36 -78.56 116.12 C-76.31 114.15 -74.12 112.12 -72 110 C-71.34 110 -70.68 110 -70 110 C-69.34 108.68 -68.68 107.36 -68 106 C-67.17 105.34 -67.17 105.34 -63 102 C-60.63 99.36 -58.31 96.69 -56 94 C-55.29 93.23 -55.29 93.23 -51.69 89.31 C-28.35 62.87 -12.26 32.85 0 0 Z " fill="#102A56" transform="translate(1025,676)"/>
<path d="M0 0 C11.1 11.1 10.02 40.96 10.19 55.62 C9.72 124.83 -29.35 181.37 -76.43 228.56 C-149.38 298.8 -251.18 337.66 -351 346 C-352.47 346.13 -353.94 346.26 -355.45 346.4 C-467.52 354.79 -582.18 317.88 -669 247 C-675.21 241.54 -681.15 235.85 -687 230 C-688.4 228.8 -689.81 227.61 -691.25 226.38 C-696.42 221.61 -700.62 216.49 -705 211 C-706.26 209.64 -707.52 208.28 -708.81 206.88 C-739.1 171.61 -757 125.65 -755 79 C-754.67 77.02 -754.34 75.04 -754 73 C-753.34 73 -752.68 73 -752 73 C-750.15 75.33 -748.37 77.71 -746.62 80.12 C-723.16 111.92 -723.16 111.92 -715 116 C-715 116.66 -715 117.32 -715 118 C-713.68 118.66 -712.36 119.32 -711 120 C-708 123 -705 126 -702 129 C-698.39 132.07 -694.71 135.06 -691 138 C-690.38 138.49 -690.38 138.49 -687.26 140.96 C-671.63 153.15 -655.15 164.07 -638 174 C-636.85 174.69 -635.7 175.38 -634.51 176.09 C-613.49 188.38 -590.85 197.72 -568 206 C-566.17 206.67 -564.33 207.35 -562.45 208.04 C-475.19 238.7 -375.63 241.61 -286 220 C-283.83 219.49 -281.67 218.98 -279.44 218.45 C-234.15 207.26 -190.65 189.63 -151 165 C-150.18 164.5 -150.18 164.5 -146.02 161.94 C-130.74 152.44 -116.16 142.1 -102 131 C-100.84 130.1 -99.67 129.21 -98.47 128.29 C-91 122.5 -83.94 116.43 -77 110 C-75.76 108.93 -74.52 107.86 -73.24 106.75 C-61.93 96.75 -51.22 85.97 -42 74 C-41.04 72.82 -40.09 71.65 -39.11 70.43 C-22.42 49.48 -9.69 26.28 -1 1 C-0.67 0.67 -0.34 0.34 0 0 Z " fill="#102A56" transform="translate(1013,539)"/>
<path d="M0 0 C73.93 3.22 154.4 45.09 208 94 C209.01 94.9 210.03 95.79 211.07 96.72 C213.75 99.1 216.38 101.55 219 104 C219 104.66 219 105.32 219 106 C219.66 106 220.32 106 221 106 C223.4 108.6 225.72 111.29 228 114 C228.77 114.9 228.77 114.9 232.69 119.44 C264.79 158.29 284.72 205.8 284.12 256.5 C284.12 258 284.11 259.5 284.1 261.05 C284.07 264.7 284.04 268.35 284 272 C275.95 272.1 268.06 271.71 260.04 271.05 C257.48 270.85 254.92 270.64 252.28 270.43 C249.48 270.2 246.69 269.96 243.9 269.73 C240.98 269.5 238.07 269.26 235.15 269.02 C227.45 268.4 219.75 267.77 212.06 267.13 C204.41 266.51 196.76 265.88 189.11 265.26 C175.8 264.18 162.5 263.09 149.19 262 C138.33 261.11 127.48 260.22 116.62 259.34 C95.76 257.64 74.9 255.93 54.04 254.19 C50.94 253.93 47.84 253.68 44.75 253.42 C40.13 253.04 35.52 252.65 30.91 252.27 C29.53 252.16 28.16 252.04 26.74 251.93 C20.15 251.37 13.57 250.77 7 250 C6.77 247.79 6.55 245.59 6.31 243.31 C3.72 224.38 -6.3 209.35 -21.12 197.51 C-31.85 189.5 -43.26 183.51 -55.94 179.19 C-57.94 178.47 -59.94 177.74 -62 177 C-64.02 170.93 -59.51 163.46 -57.38 157.56 C-57.08 156.73 -57.08 156.73 -55.57 152.5 C-53.72 147.33 -51.86 142.16 -50 137 C-49.48 135.54 -48.95 134.08 -48.41 132.58 C-45.84 125.44 -43.26 118.3 -40.68 111.17 C-36.11 98.56 -31.59 85.94 -27.06 73.31 C-26.26 71.07 -25.45 68.82 -24.62 66.51 C-21.33 57.32 -18.04 48.13 -14.8 38.92 C-11.98 30.92 -9.1 22.96 -6.19 15 C-5.7 13.65 -5.21 12.31 -4.71 10.92 C-1.12 1.12 -1.12 1.12 0 0 Z " fill="#FE9E0A" transform="translate(729,202)"/>
<path d="M0 0 C8.25 6.54 12.65 11.75 14.88 22.06 C15.19 31.85 11.29 38.38 5 45.56 C-8.32 57.38 -24.62 60.51 -42 60 C-56.36 58.47 -67.88 54.36 -79 45 C-84.77 37.81 -88 32.14 -88 22.69 C-86.12 12.01 -80.49 5.45 -72 -1 C-49.17 -13.1 -22.2 -14.35 0 0 Z " fill="#22B8E6" transform="translate(655,431)"/>
</svg>
